<?xml version="1.0" standalone="no"?>
<!DOCTYPE svg PUBLIC "-//W3C//DTD SVG 20010904//EN"
 "http://www.w3.org/TR/2001/REC-SVG-20010904/DTD/svg10.dtd">
<svg version="1.0" xmlns="http://www.w3.org/2000/svg"
 width="398.000000pt" height="398.000000pt" viewBox="0 0 398.000000 398.000000"
 preserveAspectRatio="xMidYMid meet">
<metadata>
Created by potrace 1.14, written by Peter Selinger 2001-2017
</metadata>
<g transform="translate(0.000000,398.000000) scale(0.100000,-0.100000)"
fill="#000000" stroke="none">
<path d="M1700 3476 c-246 -39 -363 -145 -364 -327 -1 -70 -4 -81 -27 -106
-36 -39 -49 -66 -49 -105 0 -27 -9 -43 -41 -73 -121 -118 -213 -311 -222 -472
-3 -38 -11 -61 -32 -88 -33 -45 -80 -138 -89 -180 -8 -38 -19 -251 -19 -370 0
-108 23 -166 72 -183 21 -8 32 -19 36 -39 16 -73 49 -160 77 -202 61 -90 98
-129 127 -136 27 -6 29 -9 24 -41 -3 -19 -1 -45 5 -57 6 -12 13 -46 15 -74 7
-95 70 -196 178 -289 13 -12 45 -44 71 -73 31 -35 54 -51 70 -51 14 0 35 -11
48 -25 20 -21 22 -29 12 -49 -9 -21 -28 -28 -149 -56 -171 -39 -210 -53 -246
-86 -35 -32 -29 -40 56 -72 187 -71 408 -128 537 -138 74 -6 273 -5 340 0 166
15 389 75 575 156 11 4 28 11 38 14 9 3 17 10 17 15 0 22 -70 62 -126 73 -118
22 -288 69 -296 81 -12 19 -11 22 35 58 23 18 52 46 64 60 13 15 33 29 46 33
12 3 44 28 71 56 26 27 56 50 67 50 38 0 98 153 99 251 0 20 7 54 16 74 12 29
13 44 5 61 -9 20 -7 23 20 29 22 5 44 26 83 78 65 87 92 139 106 204 6 26 12
58 15 69 3 13 15 24 30 28 17 4 33 22 49 55 23 45 25 56 20 167 -3 66 -6 166
-8 224 -2 78 -8 118 -23 158 -20 50 -74 126 -116 164 -10 9 -17 21 -14 25 8
14 -11 153 -29 206 -22 68 -82 170 -133 229 -23 26 -41 50 -39 55 1 4 -2 26
-6 49 -5 28 -2 62 9 105 40 152 -24 264 -200 349 -76 37 -221 81 -310 94 -22
4 -67 11 -100 17 -92 15 -311 18 -395 5z"/>
</g>
</svg>
