<?xml version="1.0" standalone="no"?>
<!DOCTYPE svg PUBLIC "-//W3C//DTD SVG 20010904//EN"
 "http://www.w3.org/TR/2001/REC-SVG-20010904/DTD/svg10.dtd">
<svg version="1.0" xmlns="http://www.w3.org/2000/svg"
 width="398.000000pt" height="398.000000pt" viewBox="0 0 398.000000 398.000000"
 preserveAspectRatio="xMidYMid meet">
<metadata>
Created by potrace 1.14, written by Peter Selinger 2001-2017
</metadata>
<g transform="translate(0.000000,398.000000) scale(0.100000,-0.100000)"
fill="#000000" stroke="none">
<path d="M1692 3475 c-164 -25 -273 -87 -327 -185 -25 -48 -29 -66 -30 -137
-1 -74 -3 -85 -27 -110 -35 -38 -48 -66 -48 -103 0 -26 -14 -47 -69 -106 -108
-116 -177 -269 -196 -439 -5 -43 -15 -69 -35 -95 -85 -109 -102 -192 -104
-535 -1 -117 18 -170 71 -195 28 -13 33 -24 53 -98 32 -119 145 -282 196 -282
11 0 14 -10 12 -39 -1 -22 3 -45 9 -53 6 -7 13 -41 16 -75 9 -104 49 -169 181
-293 9 -8 38 -39 64 -67 34 -37 56 -53 73 -53 14 0 36 -11 49 -25 19 -20 21
-29 13 -47 -8 -19 -35 -29 -182 -64 -172 -43 -241 -73 -241 -109 0 -26 40 -29
65 -5 17 16 66 33 167 57 79 18 151 36 160 39 13 4 24 -8 43 -43 22 -42 46
-75 149 -208 13 -16 27 -27 31 -23 8 7 -29 68 -97 157 -56 75 -74 127 -56 166
10 22 16 25 40 20 16 -4 51 -29 79 -56 28 -27 85 -70 128 -96 42 -25 68 -43
58 -39 -30 10 -54 -11 -92 -78 -40 -71 -41 -76 -20 -76 8 0 28 26 44 58 16 32
37 65 47 73 16 13 17 12 10 -11 -11 -38 -18 -131 -7 -100 5 14 9 37 10 51 1
15 9 37 20 50 18 22 19 23 45 5 20 -13 25 -22 20 -38 -4 -13 -2 -18 5 -14 5 4
22 -11 37 -34 40 -59 64 -53 28 8 -41 71 -52 85 -74 97 -18 10 -14 14 47 50
38 22 94 65 125 95 70 68 104 76 113 26 8 -41 -12 -92 -64 -161 -48 -64 -91
-132 -91 -144 0 -18 26 -1 42 27 9 15 46 67 82 115 36 49 66 95 66 102 0 23
16 25 71 9 30 -9 103 -27 163 -39 62 -14 121 -32 136 -44 24 -17 30 -18 46 -6
18 13 18 14 -1 35 -30 33 -62 46 -152 63 -138 26 -243 58 -253 77 -7 14 -1 23
35 49 24 17 54 45 65 61 12 17 28 30 36 30 9 0 41 24 72 54 31 30 66 55 77 58
40 7 94 147 95 246 0 24 7 57 16 73 9 18 13 41 9 57 -5 23 -1 29 23 38 32 12
110 108 147 182 13 27 31 78 39 113 9 35 20 65 25 67 33 11 62 49 77 100 13
45 15 78 10 162 -4 58 -8 152 -9 210 -3 123 -23 177 -100 272 -31 37 -47 66
-47 85 -2 131 -70 304 -158 403 -59 66 -70 118 -45 215 29 113 0 212 -84 285
-91 80 -308 153 -551 184 -145 19 -264 19 -380 1z m338 -45 c315 -38 527 -118
605 -229 27 -38 30 -50 30 -117 -1 -41 -5 -78 -11 -84 -6 -6 -26 2 -57 24 -45
32 -94 52 -104 43 -2 -3 19 -21 46 -41 51 -36 111 -108 111 -132 0 -11 -7 -10
-35 3 -60 28 -51 6 27 -66 123 -115 193 -243 206 -374 l5 -58 -44 29 c-73 49
-209 122 -295 158 -307 127 -689 136 -1029 23 -96 -32 -282 -125 -379 -190
l-59 -39 6 52 c8 77 41 174 84 248 37 63 146 183 208 229 l30 22 -32 -4 c-30
-3 -33 -1 -33 24 0 49 91 113 265 185 18 7 18 8 -7 11 -22 4 -70 -6 -155 -32
-27 -9 -37 18 -28 80 14 89 84 164 189 201 112 40 294 53 456 34z m61 -837
c17 -84 17 -313 1 -370 l-13 -43 -129 0 -129 0 -12 43 c-29 103 -7 420 30 430
9 3 66 5 127 6 l112 1 13 -67z m-295 40 c-21 -73 -28 -157 -23 -280 3 -76 8
-148 12 -160 6 -19 2 -22 -47 -32 -51 -11 -155 -41 -189 -55 -27 -12 -44 79
-43 234 0 100 5 151 18 197 l18 62 92 20 c167 37 169 37 162 14z m457 1 c48
-9 94 -22 102 -30 25 -25 40 -125 39 -269 0 -79 -5 -158 -12 -181 l-12 -41
-80 23 c-44 13 -103 26 -131 30 -45 6 -50 9 -45 28 3 11 10 62 16 113 11 92 2
236 -20 313 -8 29 -7 30 23 30 18 0 72 -7 120 -16z m233 -70 c49 -19 94 -40
100 -45 36 -30 51 -330 21 -429 -22 -73 -32 -87 -49 -72 -8 6 -47 27 -87 47
-63 31 -72 39 -68 58 34 137 29 362 -9 460 -3 9 -4 17 -1 17 2 0 44 -16 93
-36z m-985 -20 c-29 -110 -32 -255 -6 -419 6 -40 6 -40 -42 -62 -26 -12 -66
-33 -89 -47 l-41 -25 -17 52 c-30 92 -40 200 -27 301 20 156 22 159 93 189
109 45 133 54 136 52 2 -2 -1 -20 -7 -41z m1188 -79 c116 -68 113 -62 118
-216 4 -99 1 -153 -11 -207 -13 -64 -52 -162 -63 -162 -3 0 -32 25 -67 56
l-62 56 19 56 c34 96 35 350 2 435 -10 23 -5 22 64 -18z m-1425 -45 c-21 -100
-18 -252 7 -346 11 -43 22 -84 22 -89 1 -6 -26 -37 -61 -69 l-62 -58 -25 55
c-42 91 -58 186 -52 319 3 85 9 124 20 142 12 18 156 118 163 112 1 -1 -4 -30
-12 -66z m1626 -124 l52 -59 -6 -133 c-7 -164 -34 -253 -94 -307 -17 -16 -20
-15 -52 18 l-33 34 21 48 c52 124 71 258 55 391 -5 40 -6 71 -2 70 4 -2 31
-30 59 -62z m-1822 -31 c-14 -135 8 -278 58 -377 l25 -49 -28 -34 c-15 -18
-33 -34 -40 -34 -17 -1 -58 55 -84 114 -16 37 -24 83 -31 183 -9 120 -8 135 8
160 21 32 96 123 99 120 1 -2 -2 -39 -7 -83z m1939 -189 c5 -47 4 -50 -10 -31
-23 30 -28 15 -12 -40 31 -102 9 -220 -51 -280 -19 -19 -38 -35 -42 -35 -4 0
-17 15 -28 33 l-21 33 32 37 c50 58 75 136 86 267 4 63 9 120 10 125 2 24 31
-63 36 -109z m-2082 -35 c-15 -15 -16 -13 -10 24 12 72 20 84 23 36 2 -31 -2
-49 -13 -60z m1225 84 c98 -21 207 -58 288 -99 110 -56 285 -195 288 -229 0
-7 2 -22 2 -34 2 -17 8 -23 27 -23 14 0 25 -4 25 -10 0 -5 -11 -10 -23 -10
-23 0 -25 -5 -36 -102 -7 -57 -22 -139 -33 -183 -11 -44 -26 -108 -33 -141
-18 -82 -57 -173 -65 -150 -4 11 -15 -5 -34 -50 -27 -62 -30 -65 -39 -43 -9
22 -11 20 -21 -26 -11 -49 -11 -49 -23 -22 -14 30 -33 36 -33 10 0 -11 -7 -5
-17 16 -38 76 -128 106 -290 97 l-112 -7 14 28 c8 15 15 34 15 41 0 8 15 12
43 12 24 0 48 5 55 12 16 16 15 60 -1 83 -12 16 -14 13 -13 -26 l1 -44 -49 -6
c-37 -4 -53 -11 -68 -32 -28 -38 -76 -37 -111 3 -22 24 -35 30 -67 30 -46 0
-68 26 -50 59 15 29 12 39 -5 17 -18 -24 -19 -68 -3 -84 7 -7 29 -12 50 -12
34 0 39 -4 56 -39 l19 -39 -141 2 c-128 1 -145 -1 -183 -21 -22 -12 -55 -39
-71 -59 l-30 -36 -26 38 -25 38 6 -40 6 -39 -42 63 c-39 60 -57 78 -45 47 13
-33 -6 -12 -34 38 -33 58 -40 79 -78 252 -18 81 -27 152 -28 217 -1 95 -2 98
-23 98 -13 0 -23 5 -23 10 0 6 11 10 25 10 14 0 25 5 25 10 0 6 -4 10 -10 10
-5 0 -10 13 -10 29 0 21 11 39 43 68 137 126 331 224 527 267 89 19 291 20
380 1z m-1164 -276 c9 -19 30 -50 45 -70 34 -43 34 -46 10 -79 -18 -23 -21
-23 -46 -10 -40 22 -85 105 -85 160 0 40 11 98 27 140 3 8 11 -13 18 -46 7
-34 21 -77 31 -95z m2032 -101 c-4 -67 -28 -138 -46 -138 -4 0 -20 11 -36 24
l-30 23 36 37 c20 21 45 58 55 82 10 24 20 44 22 44 2 0 2 -33 -1 -72z m-2051
-69 l35 -37 -23 -16 c-13 -9 -27 -16 -32 -16 -14 0 -47 83 -47 120 l0 34 16
-24 c10 -14 32 -41 51 -61z m179 62 c-3 -5 -1 -23 5 -40 16 -46 7 -56 -20 -21
-22 30 -22 32 -5 51 18 20 29 26 20 10z m1664 -38 c0 -5 -9 -19 -20 -33 l-20
-25 0 27 c0 17 6 28 18 31 9 3 18 5 20 6 1 0 2 -2 2 -6z m-1700 -34 c0 -5 -7
-32 -16 -60 -10 -30 -14 -62 -10 -84 9 -48 22 -52 18 -5 -4 39 13 110 26 110
16 0 31 -42 37 -101 4 -35 13 -86 21 -113 8 -27 14 -56 14 -63 0 -22 -32 -15
-64 15 l-29 27 22 -32 c17 -25 30 -33 52 -33 28 0 29 -2 29 -46 0 -41 -2 -45
-22 -42 -26 4 -97 92 -132 163 -13 28 -30 78 -36 112 l-12 62 43 50 c44 50 59
61 59 40z m1769 -51 l42 -46 -15 -66 c-19 -81 -45 -133 -103 -208 -32 -43 -51
-58 -69 -58 -22 0 -24 4 -24 45 0 43 1 45 28 45 29 0 48 12 72 45 10 13 4 11
-18 -8 -59 -48 -77 -36 -53 36 10 29 21 83 25 121 7 70 19 106 36 106 14 0 33
-80 27 -117 -7 -43 9 -34 17 10 4 19 0 54 -9 83 -17 55 -19 83 -7 69 5 -6 28
-31 51 -57z m-872 -483 c-33 -30 -48 -31 -74 -7 -10 9 -14 14 -9 10 17 -14 73
-9 86 7 7 8 15 15 19 15 3 0 -7 -12 -22 -25z m246 -111 c-5 -15 -93 -34 -203
-44 -131 -12 -372 16 -383 44 -4 9 71 12 293 12 215 -1 296 -4 293 -12z m-630
-5 c-19 -19 -3 -39 31 -39 17 -1 58 -7 91 -15 33 -8 107 -17 165 -21 101 -6
119 -4 355 35 30 5 40 11 39 24 -2 20 9 22 23 5 19 -24 22 -61 9 -93 -37 -87
-242 -171 -288 -117 -29 33 -29 50 0 61 20 7 -1 9 -88 9 -93 0 -109 -2 -83
-10 32 -10 32 -11 15 -37 -23 -36 -31 -41 -78 -41 -41 0 -137 42 -179 78 -58
49 -71 109 -33 149 12 13 24 23 27 23 3 0 0 -5 -6 -11z m347 -572 c44 0 87 9
135 26 38 14 71 24 73 22 5 -5 -136 -104 -176 -123 -33 -16 -35 -16 -98 17
-35 18 -83 50 -106 71 l-43 39 75 -27 c53 -18 94 -26 140 -25z"/>
<path d="M1990 3337 c12 -34 0 -62 -41 -95 -38 -31 -37 -48 5 -62 45 -14 52
-35 21 -62 -23 -20 -24 -23 -8 -40 17 -19 20 -88 8 -173 -5 -31 -3 -36 5 -23
17 28 25 175 10 193 -11 13 -10 19 4 33 25 29 20 59 -14 77 -16 9 -30 19 -30
23 0 5 14 21 30 37 33 32 39 70 15 101 -14 18 -14 17 -5 -9z"/>
<path d="M1492 1948 c-38 -13 -125 -87 -102 -87 8 -1 44 8 78 19 81 25 102 25
242 -4 64 -13 119 -20 124 -15 20 18 -12 56 -61 74 -59 20 -235 29 -281 13z"/>
<path d="M2195 1946 c-65 -16 -92 -31 -100 -57 -11 -35 6 -39 86 -20 128 31
189 35 260 16 35 -10 75 -20 89 -23 l25 -5 -25 28 c-45 50 -115 75 -205 74
-44 0 -102 -6 -130 -13z"/>
<path d="M1486 1765 c-51 -18 -87 -45 -106 -79 -15 -27 -14 -28 33 -71 61 -56
129 -79 212 -72 60 4 146 36 189 69 17 14 17 16 2 45 -22 43 -88 97 -135 111
-52 16 -147 14 -195 -3z m39 -42 c-24 -58 -6 -112 44 -133 38 -15 75 -7 108
26 22 22 25 32 20 69 l-4 44 27 -14 c15 -8 40 -28 54 -46 32 -38 26 -48 -46
-79 -66 -28 -145 -36 -202 -20 -46 13 -116 70 -116 94 0 18 29 42 70 60 46 20
54 20 45 -1z m89 8 c4 -5 3 -17 0 -26 -10 -24 -48 -15 -52 13 -3 18 1 22 22
22 14 0 27 -4 30 -9z"/>
<path d="M2245 1769 c-39 -11 -111 -72 -131 -112 -15 -29 -15 -31 2 -45 11 -8
44 -26 74 -41 45 -21 69 -26 135 -26 91 0 150 23 207 82 31 33 32 34 16 61
-20 34 -70 69 -117 82 -43 12 -144 12 -186 -1z m83 -51 c-4 -28 -42 -37 -52
-13 -9 24 1 35 30 35 21 0 25 -4 22 -22z m144 -4 c66 -34 52 -84 -36 -129 -77
-39 -186 -29 -274 25 -33 20 -33 20 -16 49 10 16 33 38 53 49 l36 20 -3 -42
c-5 -61 29 -101 87 -101 71 0 112 62 87 133 -7 22 -6 23 16 17 12 -4 35 -14
50 -21z"/>
<path d="M1918 1699 c-10 -5 -18 -17 -18 -26 0 -11 4 -13 13 -5 24 20 76 24
107 9 25 -13 30 -13 30 -2 0 31 -92 48 -132 24z"/>
<path d="M2077 1650 c3 -25 10 -54 15 -65 5 -13 6 -3 2 25 -4 25 -10 54 -15
65 -5 12 -6 3 -2 -25z"/>
<path d="M1923 1653 c-13 -2 -23 -10 -23 -16 0 -8 24 -12 75 -12 49 0 75 4 75
11 0 20 -65 29 -127 17z"/>
<path d="M2071 1480 c-1 -99 16 -127 21 -36 2 41 -2 76 -9 89 -11 19 -12 11
-12 -53z"/>
<path d="M1302 325 c0 -16 2 -22 5 -12 2 9 2 23 0 30 -3 6 -5 -1 -5 -18z"/>
</g>
</svg>
