<?xml version="1.0" standalone="no"?>
<!DOCTYPE svg PUBLIC "-//W3C//DTD SVG 20010904//EN"
 "http://www.w3.org/TR/2001/REC-SVG-20010904/DTD/svg10.dtd">
<svg version="1.0" xmlns="http://www.w3.org/2000/svg"
 width="225.000000pt" height="225.000000pt" viewBox="0 0 225.000000 225.000000"
 preserveAspectRatio="xMidYMid meet">

<g transform="translate(0.000000,225.000000) scale(0.100000,-0.100000)"
fill="#000000" stroke="none">
<path d="M340 2232 c-165 -43 -288 -172 -325 -337 -14 -61 -15 -169 -13 -805
l3 -735 23 -57 c50 -123 147 -220 272 -270 53 -22 70 -23 427 -26 236 -2 393
1 429 7 147 27 266 120 332 258 l37 78 3 172 4 171 181 4 c159 4 189 7 239 27
125 49 231 158 275 283 16 48 18 91 18 463 0 464 -1 472 -77 585 -47 71 -130
137 -216 172 l-57 23 -745 2 c-676 2 -751 1 -810 -15z m360 -392 l0 -300 -290
0 -290 0 0 163 c0 146 3 168 23 218 30 71 66 117 128 159 70 47 124 59 287 59
l142 1 0 -300z m710 0 l0 -300 -290 0 -290 0 0 300 0 300 290 0 290 0 0 -300z
m538 251 c70 -38 119 -89 154 -160 20 -41 23 -63 26 -218 l4 -173 -291 0 -291
0 0 296 0 296 168 -4 167 -3 63 -34z m-1248 -986 l0 -305 -295 0 -295 0 0 305
0 305 295 0 295 0 0 -305z m710 0 l0 -305 -290 0 -290 0 0 305 0 305 290 0
290 0 0 -305z m718 128 c-3 -168 -4 -181 -29 -234 -34 -72 -96 -134 -168 -168
-52 -24 -67 -26 -218 -29 l-163 -4 0 306 0 306 291 0 290 0 -3 -177z m-1428
-834 l0 -280 -167 3 c-156 3 -172 5 -223 29 -70 33 -136 99 -169 169 -23 50
-26 69 -29 208 l-4 152 296 0 296 0 0 -281z m710 126 c0 -121 -3 -153 -20
-199 -28 -73 -99 -147 -175 -183 -56 -26 -70 -28 -222 -31 l-163 -4 0 281 0
281 290 0 290 0 0 -145z"/>
</g>
</svg>
