<?xml version="1.0" standalone="no"?>
<!DOCTYPE svg PUBLIC "-//W3C//DTD SVG 20010904//EN"
 "http://www.w3.org/TR/2001/REC-SVG-20010904/DTD/svg10.dtd">
<svg version="1.0" xmlns="http://www.w3.org/2000/svg"
 width="251.000000pt" height="201.000000pt" viewBox="0 0 251.000000 201.000000"
 preserveAspectRatio="xMidYMid meet">

<g transform="translate(0.000000,201.000000) scale(0.100000,-0.100000)"
fill="#000000" stroke="none">
<path d="M415 1856 c-162 -104 -251 -168 -275 -197 l-35 -42 -3 -286 c-2 -157
0 -300 3 -318 10 -57 81 -116 315 -264 124 -78 236 -150 249 -160 30 -24 71
-24 102 -1 66 50 379 237 488 292 68 34 201 110 296 169 155 98 176 108 206
102 19 -3 107 -43 196 -89 237 -121 247 -136 241 -379 -3 -150 -3 -152 -33
-195 -21 -29 -74 -73 -165 -135 l-135 -92 -75 0 -75 -1 -160 93 c-123 71 -161
98 -166 117 -4 14 -7 76 -8 138 -1 61 -3 112 -6 112 -3 0 -59 -27 -125 -60
l-120 -60 0 -124 0 -124 31 -26 c17 -14 35 -26 41 -26 6 0 127 -67 268 -150
345 -202 292 -202 647 5 146 85 270 156 277 158 8 3 11 100 11 354 l0 350 -37
44 c-26 32 -104 88 -275 197 l-240 152 -64 0 -65 0 -170 -106 c-93 -58 -227
-136 -299 -171 -84 -43 -186 -106 -290 -181 -191 -138 -204 -144 -242 -116
-15 12 -93 58 -173 104 -167 95 -173 100 -212 159 -28 45 -28 46 -28 207 l0
162 33 48 c25 39 66 72 190 156 87 59 166 109 175 112 9 3 27 0 39 -7 189
-106 325 -188 356 -216 60 -54 67 -75 67 -205 l0 -115 105 62 104 62 1 118 c0
130 -6 151 -62 204 -18 17 -136 97 -262 177 l-229 146 -86 0 -86 0 -240 -154z"/>
</g>
</svg>
