<?xml version="1.0" standalone="no"?>
<!DOCTYPE svg PUBLIC "-//W3C//DTD SVG 20010904//EN"
 "http://www.w3.org/TR/2001/REC-SVG-20010904/DTD/svg10.dtd">
<svg version="1.0" xmlns="http://www.w3.org/2000/svg"
 width="1500.000000pt" height="1500.000000pt" viewBox="0 0 1500.000000 1500.000000"
 preserveAspectRatio="xMidYMid meet">

<g transform="translate(0.000000,1500.000000) scale(0.100000,-0.100000)"
fill="#000000" stroke="none">
<path d="M2742 13090 c-19 -4 -63 -23 -98 -41 -57 -28 -108 -76 -407 -383
-187 -193 -461 -472 -607 -621 -859 -872 -959 -977 -999 -1059 -53 -108 -60
-205 -24 -320 43 -136 145 -241 278 -288 47 -17 323 -18 5715 -16 l5665 3 60
29 c53 25 170 139 1036 1005 1040 1040 1035 1034 1060 1155 6 28 15 55 20 61
12 12 12 92 0 100 -5 3 -15 30 -21 59 -6 30 -27 80 -46 112 -32 56 -117 144
-138 144 -5 0 -17 6 -25 13 -9 8 -46 23 -84 35 l-67 22 -5643 -1 c-3103 -1
-5657 -5 -5675 -9z"/>
<path d="M970 8863 c-36 -6 -118 -33 -149 -49 -14 -8 -31 -14 -37 -14 -16 0
-120 -113 -141 -153 -57 -107 -74 -218 -49 -317 25 -99 49 -136 159 -250 285
-294 512 -527 931 -955 254 -258 522 -533 596 -610 261 -269 305 -310 377
-346 l68 -34 5675 -3 5674 -2 59 20 c70 24 97 41 157 94 55 49 107 127 121
181 6 22 17 53 25 68 18 37 18 126 -1 151 -8 11 -15 28 -15 39 0 10 -12 44
-26 75 -30 63 -29 63 -1255 1293 -376 377 -702 699 -724 715 -50 36 -88 58
-145 81 -43 17 -265 18 -5660 19 -3088 1 -5626 -1 -5640 -3z"/>
<path d="M8355 4630 c-4010 -4 -5610 -9 -5636 -16 -98 -30 -135 -63 -552 -488
-227 -232 -475 -486 -552 -566 -77 -80 -237 -244 -356 -365 -605 -616 -607
-618 -649 -725 -27 -72 -29 -203 -2 -275 45 -125 123 -214 232 -268 l65 -32
5615 -3 c3477 -1 5641 1 5684 7 142 20 87 -30 1171 1055 745 745 995 1002
1011 1036 30 62 64 175 64 209 0 16 -7 42 -15 57 -8 16 -15 39 -15 50 0 35
-66 157 -107 196 -74 71 -196 120 -323 130 -19 2 -2555 1 -5635 -2z"/>
</g>
</svg>
